:SAMPLES-PER-SECOND 30
:FULLY-SPECIFIED
:DEGREES
105
root  34.72513815 36.56284903 -14.2260559 10.08950138 -5.589404106 3.888676405
lowerback  -7.783180237 -0.6177989841 -1.302199721
upperback  -4.09333992 -0.1862709969 -4.335669994
thorax  0.1237580031 0.1008730009 -3.764790058
lowerneck  -4.390920162 -15.66419983 -10.8263998
upperneck  8.491350174 -21.40189934 11.70119953
head  5.697929859 -10.22379971 3.549420118
lclavicle  0 -4.497500157e-015 -2.743230041e-014
lhumerus  -48.13610077 30.02739906 61.84339905
lradius  0.006620147731 -6.507048965e-006 29.6840992
lwrist  4.824992743e-007 -3.790274832e-007 -29.69459915
lhand  -3.533720219e-031 -36.6908989 -10.49639988
lfingers  90 7.125020027 -90
lthumb  94.68093872 -25.34284973 100.8294678
rclavicle  0 -4.497500157e-015 -2.743230041e-014
rhumerus  3.265358448 -39.14450073 -33.81009674
rradius  -5.16745672e-007 2.214343908e-008 94.28679657
rwrist  -2.867388866e-005 0.1017204151 -176.7910004
rhand  -3.108010235e-031 3.882790089 -6.325839996
rfingers  -90 -7.125020027 -90
rthumb  -84.58394623 -9.54610157 -60.24363327
rfemur  -12.08263493 14.63867378 12.16526508
rtibia  -0.4653954804 -1.939228177 18.88926315
rfoot  1.409633994 -23.0917263 -33.75622559
rtoes  4.170628071 19.5784111 -102.2770691
lfemur  -4.658995628 -16.04814911 -22.71331215
ltibia  6.494475365 -0.7313786745 8.237690926
lfoot  0.7510146499 -21.02559853 36.78331757
ltoes  -8.445724487 -18.19580841 -115.43116
106
root  34.72644175 36.5631464 -14.22502112 10.1207819 -5.564772606 3.888992548
lowerback  -7.777860641 -0.5761259794 -1.289019585
upperback  -4.071080208 -0.1322430074 -4.351530075
thorax  0.1467490047 0.1271339953 -3.784499884
lowerneck  -4.377419949 -15.70969963 -10.94099998
upperneck  8.462089539 -21.46709824 11.79880047
head  5.718494892 -10.25456524 3.583674192
lclavicle  0 -4.497500157e-015 -2.743230041e-014
lhumerus  -48.11439896 29.99760056 61.90119934
lradius  0.006620147731 -6.507048965e-006 29.68969917
lwrist  4.824992743e-007 -3.790274832e-007 -29.68510056
lhand  -3.530740041e-031 -36.67699814 -10.53429985
lfingers  90 7.125020027 -90
lthumb  94.68231201 -25.38048553 100.8179474
rclavicle  0 -4.497500157e-015 -2.743230041e-014
rhumerus  4.447119236 -39.41339874 -33.63909912
rradius  -5.16745672e-007 2.214343908e-008 92.86969757
rwrist  -2.867388866e-005 0.1017204151 -176.6990051
rhand  -3.109865207e-031 4.267010212 -6.295259953
rfingers  -90 -7.125020027 -90
rthumb  -84.47419739 -9.593621254 -59.86533737
rfemur  -12.09770107 14.63752079 12.16392803
rtibia  -0.4688681364 -1.946926117 18.86348724
rfoot  1.418902755 -23.07791138 -33.77314377
rtoes  4.166442394 19.57945824 -102.2645721
lfemur  -4.820169449 -15.98946667 -22.64040565
ltibia  6.401141644 -0.6939470768 8.433488846
lfoot  0.7841542959 -21.18888664 36.73211288
ltoes  -8.424160957 -18.20553398 -115.3621216
107
root  34.72787752 36.56329358 -14.22416657 10.12474442 -5.542140484 3.90978241
lowerback  -7.768050671 -0.5487270951 -1.259680271
upperback  -4.0707798 -0.09741079807 -4.367800236
thorax  0.1433780044 0.1441970021 -3.815330029
lowerneck  -4.362619877 -15.74750042 -10.9907999
upperneck  8.436420441 -21.52059937 11.84770012
head  5.724170208 -10.28009987 3.5994699
lclavicle  0 -4.497500157e-015 -2.743230041e-014
lhumerus  -48.15679932 30.05050087 61.84000015
lradius  0.006620147731 -6.507048965e-006 29.68619919
lwrist  4.824992743e-007 -3.790274832e-007 -29.80979919
lhand  -3.525756455e-031 -36.73279953 -10.58670044
lfingers  90 7.125020027 -90
lthumb  94.71923828 -25.42999268 100.8822556
rclavicle  0 -4.497500157e-015 -2.743230041e-014
rhumerus  5.643119812 -39.66030121 -33.54499817
rradius  -5.16745672e-007 2.214343908e-008 91.43779755
rwrist  -2.867388866e-005 0.1017204151 -176.401001
rhand  -3.105763227e-031 4.422589779 -6.354859829
rfingers  -90 -7.125020027 -90
rthumb  -84.46611023 -9.55079174 -59.71824265
rfemur  -12.07963943 14.58776283 12.1451683
rtibia  -0.4746393561 -1.984541655 18.83975792
rfoot  1.430168986 -23.12612534 -33.74417114
rtoes  4.173394203 19.580513 -102.2853241
lfemur  -4.853668213 -16.04089737 -22.65770531
ltibia  6.379520893 -0.7085695863 8.489840508
lfoot  0.7936906815 -21.20208549 36.72593689
ltoes  -8.468183517 -18.18564606 -115.5031052
108
root  34.72971278 36.56329658 -14.22357484 10.14221382 -5.514389515 3.937307596
lowerback  -7.754020214 -0.539542973 -1.24736011
upperback  -4.064962387 -0.0858957991 -4.38424015
thorax  0.1437270045 0.149740994 -3.838510036
lowerneck  -4.361480236 -15.77079964 -10.97309971
upperneck  8.410129547 -21.55320168 11.8593998
head  5.718900204 -10.29500008 3.597290039
lclavicle  0 -4.497500157e-015 -2.743230041e-014
lhumerus  -48.18489838 30.15189934 61.74209976
lradius  0.006620147731 -6.507048965e-006 29.63160133
lwrist  4.824992743e-007 -3.790274832e-007 -29.95229912
lhand  -3.526466653e-031 -36.7201004 -10.57989979
lfingers  90 7.125020027 -90
lthumb  94.71190643 -25.42382812 100.8680801
rclavicle  0 -4.497500157e-015 -2.743230041e-014
rhumerus  6.840042114 -39.84370041 -33.57569885
rradius  -5.16745672e-007 2.214343908e-008 90.07180023
rwrist  -2.867388866e-005 0.1012514755 -176.0879974
rhand  -3.124313299e-031 4.137340069 -6.081769943
rfingers  -90 -7.125020027 -90
rthumb  -84.39779663 -9.771421432 -59.97394943
rfemur  -12.1012249 14.55212212 12.11770058
rtibia  -0.4886748791 -2.007037163 18.86103439
rfoot  1.411467314 -23.15210915 -33.75683975
rtoes  4.186020851 19.58156967 -102.3230057
lfemur  -4.867393017 -16.06960297 -22.68708801
ltibia  6.392460346 -0.7238008976 8.471166611
lfoot  0.7908779979 -21.16736412 36.7036705
ltoes  -8.486862183 -18.1771698 -115.5629654
